<svg xmlns="http://www.w3.org/2000/svg" viewBox="0 0 300 500" width="300" height="500">
  <defs>
    <radialGradient id="g" cx="0.35" cy="0.3" r="0.8">
      <stop offset="0" stop-color="#FFE98A"/><stop offset="0.6" stop-color="#FFD23F"/><stop offset="1" stop-color="#E0A800"/>
    </radialGradient>
    <radialGradient id="shine" cx="0.5" cy="0.5" r="0.5">
      <stop offset="0" stop-color="#fff" stop-opacity="0.7"/><stop offset="1" stop-color="#fff" stop-opacity="0"/>
    </radialGradient>
  </defs>
  <ellipse cx="150" cy="488" rx="105" ry="12" fill="#000" opacity="0.18"/>
  <!-- feet -->
  <ellipse cx="108" cy="468" rx="40" ry="22" fill="#E0A800"/>
  <ellipse cx="192" cy="468" rx="40" ry="22" fill="#E0A800"/>
  <!-- arms -->
  <ellipse cx="62" cy="378" rx="24" ry="48" transform="rotate(20 62 378)" fill="url(#g)"/>
  <ellipse cx="238" cy="378" rx="24" ry="48" transform="rotate(-20 238 378)" fill="url(#g)"/>
  <!-- body -->
  <ellipse cx="150" cy="392" rx="90" ry="82" fill="url(#g)"/>
  <ellipse cx="150" cy="404" rx="56" ry="54" fill="#FFF3C2"/>
  
      <path d="M150 128 C 135 90, 120 80, 112 92 C 128 96, 138 110, 142 128 Z" fill="#E0A800"/>
      <path d="M150 128 C 150 80, 160 62, 172 70 C 160 84, 158 104, 158 128 Z" fill="#E0A800"/>
  <!-- head -->
  <circle cx="150" cy="240" r="112" fill="url(#g)"/>
  <ellipse cx="112" cy="180" rx="34" ry="22" fill="url(#shine)"/>
  <!-- eyes -->
  <ellipse cx="108" cy="226" rx="17" ry="21" fill="#1E1410"/>
  <ellipse cx="192" cy="226" rx="17" ry="21" fill="#1E1410"/>
  <circle cx="114" cy="218" r="6" fill="#fff"/><circle cx="198" cy="218" r="6" fill="#fff"/>
  <circle cx="103" cy="234" r="3" fill="#fff" opacity="0.8"/><circle cx="187" cy="234" r="3" fill="#fff" opacity="0.8"/>
  <!-- cheeks -->
  <ellipse cx="80" cy="268" rx="20" ry="12" fill="#FF6F91" opacity="0.45"/>
  <ellipse cx="220" cy="268" rx="20" ry="12" fill="#FF6F91" opacity="0.45"/>
  
  <path d="M132 262 Q 150 252 168 262 Q 150 286 132 262 Z" fill="#FF8A1F" stroke="#D96A00" stroke-width="3" stroke-linejoin="round"/>
</svg>
